<svg width="38" height="38" viewBox="0 0 38 38" fill="none" xmlns="http://www.w3.org/2000/svg">
<rect width="38" height="38" rx="19" fill="#0E9F49"/>
<path d="M23.3733 10.7938C23.625 10.5421 23.9238 10.3425 24.2526 10.2063C24.5814 10.0701 24.9338 10 25.2897 10C25.6457 10 25.9981 10.0701 26.3269 10.2063C26.6557 10.3425 26.9545 10.5421 27.2062 10.7938C27.4579 11.0455 27.6575 11.3443 27.7937 11.6731C27.9299 12.0019 28 12.3543 28 12.7103C28 13.0662 27.9299 13.4186 27.7937 13.7474C27.6575 14.0762 27.4579 14.375 27.2062 14.6267L14.2702 27.5627L9 29L10.4373 23.7298L23.3733 10.7938Z" stroke="white" stroke-width="2" stroke-linecap="round" stroke-linejoin="round"/>
</svg>
