<svg width="430" height="320" viewBox="0 0 430 320" fill="none" xmlns="http://www.w3.org/2000/svg">
<mask id="mask0_41_189" style="mask-type:alpha" maskUnits="userSpaceOnUse" x="-67" y="-39" width="564" height="359">
<ellipse cx="215" cy="140.5" rx="282" ry="179.5" fill="url(#paint0_linear_41_189)"/>
</mask>
<g mask="url(#mask0_41_189)">
<path d="M401.714 133H355V179.75H401.714V133Z" fill="black"/>
<path d="M401.714 179.75H355V226.5H401.714V179.75Z" fill="white"/>
<path d="M401.714 226.5H355V273.25H401.714V226.5Z" fill="black"/>
<path d="M401.714 273.25H355V320H401.714V273.25Z" fill="white"/>
<path d="M448.429 133H401.714V179.75H448.429V133Z" fill="white"/>
<path d="M448.429 179.75H401.714V226.5H448.429V179.75Z" fill="black"/>
<path d="M448.429 226.5H401.714V273.25H448.429V226.5Z" fill="white"/>
<path d="M448.429 273.25H401.714V320H448.429V273.25Z" fill="black"/>
<path d="M355.429 133H308.714V179.75H355.429V133Z" fill="white"/>
<path d="M355.429 179.75H308.714V226.5H355.429V179.75Z" fill="black"/>
<path d="M355.429 226.5H308.714V273.25H355.429V226.5Z" fill="white"/>
<path d="M355.429 273.25H308.714V320H355.429V273.25Z" fill="black"/>
<path d="M308.714 133H262V179.75H308.714V133Z" fill="black"/>
<path d="M308.714 179.75H262V226.5H308.714V179.75Z" fill="white"/>
<path d="M308.714 226.5H262V273.25H308.714V226.5Z" fill="black"/>
<path d="M308.714 273.25H262V320H308.714V273.25Z" fill="white"/>
<path d="M28.4286 -7.25H-18.2857V39.5H28.4286V-7.25Z" fill="white"/>
<path d="M28.4286 39.5H-18.2857V86.25H28.4286V39.5Z" fill="black"/>
<path d="M28.4286 86.25H-18.2857V133H28.4286V86.25Z" fill="white"/>
<path d="M75.1429 -7.25H28.4286V39.5H75.1429V-7.25Z" fill="black"/>
<path d="M75.1429 39.5H28.4286V86.25H75.1429V39.5Z" fill="white"/>
<path d="M75.1429 86.25H28.4286V133H75.1429V86.25Z" fill="black"/>
<path d="M121.857 -7.25H75.1429V39.5H121.857V-7.25Z" fill="white"/>
<path d="M121.857 39.5H75.1429V86.25H121.857V39.5Z" fill="black"/>
<path d="M121.857 86.25H75.1429V133H121.857V86.25Z" fill="white"/>
<path d="M168.571 -7.25H121.857V39.5H168.571V-7.25Z" fill="black"/>
<path d="M168.571 39.5H121.857V86.25H168.571V39.5Z" fill="white"/>
<path d="M168.571 86.25H121.857V133H168.571V86.25Z" fill="black"/>
<path d="M262 -7.25H215.286V39.5H262V-7.25Z" fill="black"/>
<path d="M262 39.5H215.286V86.25H262V39.5Z" fill="white"/>
<path d="M262 86.25H215.286V133H262V86.25Z" fill="black"/>
<path d="M215.286 -7.25H168.571V39.5H215.286V-7.25Z" fill="white"/>
<path d="M215.286 39.5H168.571V86.25H215.286V39.5Z" fill="black"/>
<path d="M215.286 86.25H168.571V133H215.286V86.25Z" fill="white"/>
<path d="M401.714 -7.25H355V39.5H401.714V-7.25Z" fill="white"/>
<path d="M401.714 39.5H355V86.25H401.714V39.5Z" fill="black"/>
<path d="M401.714 86.25H355V133H401.714V86.25Z" fill="white"/>
<path d="M448.429 -7.25H401.714V39.5H448.429V-7.25Z" fill="black"/>
<path d="M448.429 39.5H401.714V86.25H448.429V39.5Z" fill="white"/>
<path d="M448.429 86.25H401.714V133H448.429V86.25Z" fill="black"/>
<path d="M355.429 -7.25H308.714V39.5H355.429V-7.25Z" fill="black"/>
<path d="M355.429 39.5H308.714V86.25H355.429V39.5Z" fill="white"/>
<path d="M355.429 86.25H308.714V133H355.429V86.25Z" fill="black"/>
<path d="M308.714 -7.25H262V39.5H308.714V-7.25Z" fill="white"/>
<path d="M308.714 39.5H262V86.25H308.714V39.5Z" fill="black"/>
<path d="M308.714 86.25H262V133H308.714V86.25Z" fill="white"/>
<path d="M28.4286 133H-18.2857V179.75H28.4286V133Z" fill="black"/>
<path d="M28.4286 179.75H-18.2857V226.5H28.4286V179.75Z" fill="white"/>
<path d="M28.4286 226.5H-18.2857V273.25H28.4286V226.5Z" fill="black"/>
<path d="M28.4286 273.25H-18.2857V320H28.4286V273.25Z" fill="white"/>
<path d="M75.1429 133H28.4286V179.75H75.1429V133Z" fill="white"/>
<path d="M75.1429 179.75H28.4286V226.5H75.1429V179.75Z" fill="black"/>
<path d="M75.1429 226.5H28.4286V273.25H75.1429V226.5Z" fill="white"/>
<path d="M75.1429 273.25H28.4286V320H75.1429V273.25Z" fill="black"/>
<path d="M121.857 133H75.1429V179.75H121.857V133Z" fill="black"/>
<path d="M121.857 179.75H75.1429V226.5H121.857V179.75Z" fill="white"/>
<path d="M121.857 226.5H75.1429V273.25H121.857V226.5Z" fill="black"/>
<path d="M121.857 273.25H75.1429V320H121.857V273.25Z" fill="white"/>
<path d="M168.571 133H121.857V179.75H168.571V133Z" fill="white"/>
<path d="M168.571 179.75H121.857V226.5H168.571V179.75Z" fill="black"/>
<path d="M168.571 226.5H121.857V273.25H168.571V226.5Z" fill="white"/>
<path d="M168.571 273.25H121.857V320H168.571V273.25Z" fill="black"/>
<path d="M262 133H215.286V179.75H262V133Z" fill="white"/>
<path d="M262 179.75H215.286V226.5H262V179.75Z" fill="black"/>
<path d="M262 226.5H215.286V273.25H262V226.5Z" fill="white"/>
<path d="M262 273.25H215.286V320H262V273.25Z" fill="black"/>
<path d="M215.286 133H168.571V179.75H215.286V133Z" fill="black"/>
<path d="M215.286 179.75H168.571V226.5H215.286V179.75Z" fill="white"/>
<path d="M215.286 226.5H168.571V273.25H215.286V226.5Z" fill="black"/>
<path d="M215.286 273.25H168.571V320H215.286V273.25Z" fill="white"/>
</g>
<defs>
<linearGradient id="paint0_linear_41_189" x1="215" y1="-39" x2="215" y2="320" gradientUnits="userSpaceOnUse">
<stop stop-color="white"/>
<stop offset="0.195" stop-color="#909090"/>
<stop offset="0.575" stop-color="#555454"/>
<stop offset="1" stop-color="#191717"/>
</linearGradient>
</defs>
</svg>
